<?xml version="1.0" standalone="no"?>
<!DOCTYPE svg PUBLIC "-//W3C//DTD SVG 20010904//EN"
 "http://www.w3.org/TR/2001/REC-SVG-20010904/DTD/svg10.dtd">
<svg version="1.0" xmlns="http://www.w3.org/2000/svg"
 width="260.000000pt" height="260.000000pt" viewBox="0 0 260.000000 260.000000"
 preserveAspectRatio="xMidYMid meet">
<metadata>
Created by potrace 1.14, written by Peter Selinger 2001-2017
</metadata>
<g transform="translate(0.000000,260.000000) scale(0.100000,-0.100000)"
fill="#000000" stroke="none">
<path d="M1150 2593 c-14 -2 -61 -11 -105 -20 -536 -105 -953 -545 -1032
-1088 -10 -66 -10 -284 -1 -360 4 -33 15 -87 23 -120 8 -33 18 -70 21 -83 12
-55 80 -209 126 -285 208 -342 528 -557 930 -625 84 -14 348 -7 438 12 268 57
491 177 672 362 200 205 317 436 363 719 13 79 14 329 1 390 -7 34 -39 177
-41 185 -1 3 -5 14 -9 25 -4 11 -13 34 -18 50 -27 76 -114 237 -166 307 -217
289 -503 465 -855 525 -39 6 -313 11 -347 6z"/>
</g>
</svg>
